<svg width="56" height="58" viewBox="0 0 56 58" fill="none" xmlns="http://www.w3.org/2000/svg">
<g id="Group">
<path id="Vector" d="M29.1431 29.7336C25.1926 27.4022 22.6883 30.3934 17.6021 31.3379C10.2374 32.8423 9.35834 37.4352 12.2823 40.2752C15.0974 42.9941 19.3203 41.2958 22.8432 43.3577C26.366 45.4196 27.5945 50.5 31.1874 51.6083C34.7802 52.7165 37.5801 49.2288 34.4775 41.4447C32.3002 36.1341 32.9926 32.1589 29.1431 29.7336Z" fill="#839AA9"/>
<path id="Vector_2" d="M20.8921 21.1742C21.7707 25.2464 20.4407 28.9249 17.9365 29.0277C15.4324 29.1306 12.6017 25.9817 11.7154 21.6946C10.8368 17.6224 12.1668 13.9439 14.671 13.8411C17.1751 13.7382 19.9047 16.9809 20.8921 21.1742Z" fill="#839AA9"/>
<path id="Vector_3" d="M39.9062 32.6283C36.4065 34.0996 34.7499 37.4148 36.0951 39.9429C37.4404 42.471 41.3366 43.2977 44.7274 41.7052C48.227 40.2339 49.8837 36.9188 48.5384 34.3907C47.302 31.9837 43.4058 31.157 39.9062 32.6283Z" fill="#839AA9"/>
<path id="Vector_4" d="M32.6277 19.1673C31.6242 23.2092 28.6844 25.7159 26.0326 24.6229C23.3807 23.5298 21.9733 19.282 22.9767 15.2402C23.9802 11.1983 26.9199 8.69157 29.5718 9.78463C32.1226 10.9715 33.5222 15.0044 32.6277 19.1673Z" fill="#839AA9"/>
<path id="Vector_5" d="M34.6572 20.3935C32.3707 23.6269 32.2072 27.7778 34.579 29.7973C36.842 31.6957 40.5672 30.6816 42.9549 27.3543C45.2414 24.1209 45.4049 19.97 43.0331 17.9505C40.7701 16.0521 36.9438 17.1601 34.6572 20.3935Z" fill="#839AA9"/>
</g>
</svg>
