<svg width="51" height="49" viewBox="0 0 51 49" fill="none" xmlns="http://www.w3.org/2000/svg">
<g id="Group">
<path id="Vector" d="M26.7416 23.9317C22.1646 24.1385 21.703 28.0075 17.9647 31.5741C12.6262 36.8531 14.3984 41.1744 18.3944 41.9534C22.2333 42.6906 24.8381 38.9647 28.9103 38.7661C32.9824 38.5674 36.7834 42.1459 40.3935 41.1114C44.0036 40.0768 44.4413 35.6312 37.5967 30.8145C32.8764 27.5614 31.2853 23.8586 26.7416 23.9317Z" fill="#839AA9"/>
<path id="Vector_2" d="M15.1678 21.2772C18.1258 24.2034 19.0216 28.0062 16.9833 29.4593C14.945 30.9125 10.8584 29.8242 7.77661 26.7223C4.81863 23.7961 3.92283 19.9933 5.96113 18.5402C7.99943 17.087 12.0527 18.309 15.1678 21.2772Z" fill="#839AA9"/>
<path id="Vector_3" d="M37.324 20.4768C35.2001 23.618 35.6244 27.2952 38.1298 28.6752C40.6351 30.0553 44.3451 28.6197 46.3118 25.4366C48.4357 22.2955 48.0114 18.6183 45.506 17.2382C43.1579 15.9 39.4478 17.3357 37.324 20.4768Z" fill="#839AA9"/>
<path id="Vector_4" d="M23.8875 13.1918C25.2548 17.1201 24.1646 20.8217 21.3498 21.3552C18.5351 21.8887 15.0389 19.1043 13.6716 15.1759C12.3043 11.2476 13.3946 7.54603 16.2093 7.01251C18.9907 6.61269 22.363 9.2216 23.8875 13.1918Z" fill="#839AA9"/>
<path id="Vector_5" d="M26.2546 13.1093C26.1073 17.062 28.2367 20.623 31.323 21.0172C34.2521 21.3696 36.8142 18.4877 36.9947 14.4013C37.142 10.4486 35.0126 6.88757 31.9263 6.49335C28.9972 6.14099 26.4018 9.15657 26.2546 13.1093Z" fill="#839AA9"/>
</g>
</svg>
