<svg width="51" height="45" viewBox="0 0 51 45" fill="none" xmlns="http://www.w3.org/2000/svg">
<g id="Group">
<g id="Group_2">
<g id="Group_3">
<path id="Vector" d="M43.5723 10.7399C42.2565 7.63025 38.6463 6.16683 35.5366 7.48261C32.7952 8.64257 31.3412 11.4769 31.9 14.2797L15.3698 21.2741C13.7472 18.9215 10.7004 17.9915 7.95902 19.1515C4.84937 20.4673 3.38596 24.0775 4.70174 27.1871C5.27306 28.5373 6.25984 29.6153 7.53459 30.2337C7.10817 31.6202 7.17747 33.0381 7.7488 34.3884C9.06458 37.498 12.6748 38.9614 15.7844 37.6457C18.5258 36.4857 19.9798 33.6513 19.421 30.8485L35.9103 23.8715C37.5329 26.2241 40.5797 27.1541 43.3211 25.9941C46.4308 24.6783 47.8942 21.0681 46.5784 17.9585C46.0071 16.6082 45.0203 15.5303 43.7456 14.9119C44.2129 13.5081 44.1436 12.0901 43.5723 10.7399ZM41.8996 16.706C43.0359 16.9971 43.9597 17.8122 44.4098 18.8761C45.2236 20.7991 44.3266 23.0118 42.4035 23.8255C40.5214 24.6219 38.3433 23.8068 37.4887 21.9011C37.229 21.2873 36.5476 21.045 35.9338 21.3047L17.5624 29.0782C16.9486 29.3379 16.7063 30.0193 16.9078 30.6094C17.6632 32.5089 16.7899 34.6634 14.8668 35.4771C12.9438 36.2908 10.7311 35.3939 9.91737 33.4708C9.46723 32.407 9.52541 31.1763 10.1076 30.1581C10.3075 29.8323 10.2917 29.453 10.1532 29.1257C10.0147 28.7984 9.71257 28.5403 9.3805 28.4396C8.24425 28.1485 7.32044 27.3333 6.8703 26.2695C6.0566 24.3465 6.95353 22.1337 8.8766 21.32C10.7588 20.5237 12.9368 21.3388 13.7915 23.2445C14.0511 23.8583 14.7326 24.1006 15.3463 23.8409L33.7996 16.0328C34.4134 15.7731 34.6557 15.0917 34.4542 14.5015C33.6987 12.602 34.5721 10.4476 36.4951 9.63386C38.4182 8.82016 40.6309 9.71709 41.4446 11.6402C41.8948 12.704 41.8366 13.9346 41.2543 14.9529C41.0545 15.2787 41.0702 15.6579 41.2087 15.9853C41.2654 16.3472 41.5676 16.6053 41.8996 16.706Z" fill="#839AA9"/>
<path id="Vector_2" d="M22.0595 14.0535C22.6732 13.7938 22.9565 13.0951 22.6968 12.4813L21.4676 9.57628C21.2079 8.96253 20.5091 8.67929 19.8954 8.93899C19.2816 9.19868 18.9984 9.89743 19.2581 10.5112L20.4873 13.4162C20.747 14.03 21.4458 14.3132 22.0595 14.0535Z" fill="#839AA9"/>
<path id="Vector_3" d="M26.4502 13.2571C26.6485 13.2696 26.7885 13.2586 26.9522 13.1894C27.3614 13.0162 27.6667 12.5976 27.6745 12.1601L27.794 9.02209C27.8144 8.3863 27.2919 7.83552 26.6388 7.77417C26.003 7.75374 25.4522 8.27624 25.3909 8.92934L25.2714 12.0674C25.251 12.7032 25.7735 13.254 26.4502 13.2571Z" fill="#839AA9"/>
<path id="Vector_4" d="M16.7735 16.7245C17.1512 17.0471 17.606 17.0958 18.0151 16.9227C18.1788 16.8534 18.3252 16.7433 18.4133 16.6095C18.8413 16.1389 18.8098 15.3804 18.3219 14.9114L15.9864 12.8122C15.5158 12.3841 14.7573 12.4157 14.2884 12.9035C13.8603 13.3741 13.8918 14.1326 14.3797 14.6016L16.7735 16.7245Z" fill="#839AA9"/>
<path id="Vector_5" d="M29.2617 31.0747C28.6479 31.3344 28.3647 32.0332 28.6244 32.6469L29.8536 35.552C30.1133 36.1657 30.812 36.449 31.4258 36.1893C32.0395 35.9296 32.3228 35.2308 32.0631 34.6171L30.8339 31.712C30.5742 31.0983 29.8754 30.815 29.2617 31.0747Z" fill="#839AA9"/>
<path id="Vector_6" d="M24.8709 31.8713C24.2351 31.8508 23.6843 32.3733 23.6229 33.0264L23.5035 36.1645C23.483 36.8003 24.0056 37.351 24.6587 37.4124C24.8569 37.425 24.997 37.414 25.1607 37.3447C25.5698 37.1716 25.8751 36.7529 25.883 36.3154L26.0024 33.1774C26.0701 32.4252 25.5476 31.8744 24.8709 31.8713Z" fill="#839AA9"/>
<path id="Vector_7" d="M34.5477 28.4039C34.0771 27.9758 33.3186 28.0073 32.8496 28.4952C32.4216 28.9658 32.4531 29.7243 32.941 30.1933L35.2765 32.2925C35.6542 32.6151 36.109 32.6639 36.5182 32.4908C36.6819 32.4215 36.8282 32.3113 36.9163 32.1776C37.3444 31.707 37.3129 30.9485 36.825 30.4795L34.5477 28.4039Z" fill="#839AA9"/>
</g>
</g>
</g>
</svg>
