<svg width="52" height="49" viewBox="0 0 52 49" fill="none" xmlns="http://www.w3.org/2000/svg">
<g id="Group">
<path id="Vector" d="M26.5781 23.8496C22.7579 26.389 24.3585 29.9467 22.9916 34.9359C21.1356 42.22 24.8861 45.013 28.7166 43.6193C32.3907 42.2707 32.7028 37.7298 36.094 35.4579C39.4852 33.186 44.5931 34.2947 47.1565 31.5442C49.72 28.7936 47.8013 24.7535 39.4432 24.1531C33.7147 23.798 30.4387 21.4422 26.5781 23.8496Z" fill="#839AA9"/>
<path id="Vector_2" d="M15.2782 27.5448C19.3262 28.529 22.0572 31.3293 21.0583 33.628C20.0594 35.9266 15.9916 37.1017 11.7468 36.0308C7.69884 35.0466 4.96784 32.2463 5.96675 29.9477C6.96566 27.6491 11.0738 26.6058 15.2782 27.5448Z" fill="#839AA9"/>
<path id="Vector_3" d="M33.8745 15.4244C33.6733 19.2155 35.935 22.1514 38.7966 22.0426C41.6583 21.9337 44.1005 18.7875 44.1453 15.0416C44.3465 11.2506 42.0848 8.31462 39.2232 8.42347C36.5179 8.48712 34.0757 11.6334 33.8745 15.4244Z" fill="#839AA9"/>
<path id="Vector_4" d="M18.5871 16.108C21.7874 18.7728 22.7622 22.5113 20.6225 24.4216C18.4829 26.3318 14.0464 25.7471 10.8461 23.0823C7.64571 20.4175 6.67094 16.679 8.81057 14.7687C10.9906 12.9904 15.2303 13.4884 18.5871 16.108Z" fill="#839AA9"/>
<path id="Vector_5" d="M20.5753 14.8158C22.4888 18.283 26.1533 20.2394 29.0047 18.9849C31.6997 17.7757 32.4106 13.9809 30.4567 10.3818C28.5433 6.9145 24.8787 4.95812 22.0273 6.21259C19.3324 7.42185 18.6618 11.3485 20.5753 14.8158Z" fill="#839AA9"/>
</g>
</svg>
